<?xml version="1.0" encoding="UTF-8" standalone="no"?>
<!-- Created with Inkscape (http://www.inkscape.org/) -->

<svg
   xmlns:dc="http://purl.org/dc/elements/1.1/"
   xmlns:cc="http://creativecommons.org/ns#"
   xmlns:rdf="http://www.w3.org/1999/02/22-rdf-syntax-ns#"
   xmlns:svg="http://www.w3.org/2000/svg"
   xmlns="http://www.w3.org/2000/svg"
   xmlns:sodipodi="http://sodipodi.sourceforge.net/DTD/sodipodi-0.dtd"
   xmlns:inkscape="http://www.inkscape.org/namespaces/inkscape"
   id="svg4136"
   version="1.1"
   inkscape:version="0.92.2 (5c3e80d, 2017-08-06)"
   xml:space="preserve"
   width="269.55362"
   height="495.59222"
   viewBox="0 0 269.55363 495.59221"
   sodipodi:docname="Emblem_of_the_Norwegian_Directorate_of_Fisheries.svg"><metadata
     id="metadata4142"><rdf:RDF><cc:Work
         rdf:about=""><dc:format>image/svg+xml</dc:format><dc:type
           rdf:resource="http://purl.org/dc/dcmitype/StillImage" /><dc:title></dc:title></cc:Work></rdf:RDF></metadata><defs
     id="defs4140"><clipPath
       id="clipPath154"
       clipPathUnits="userSpaceOnUse"><path
         inkscape:connector-curvature="0"
         id="path152"
         d="M 0,0 H 595.276 V 785.197 H 0 Z" /></clipPath><clipPath
       id="clipPath210"
       clipPathUnits="userSpaceOnUse"><path
         inkscape:connector-curvature="0"
         id="path208"
         d="M 0,0 H 595.276 V 785.197 H 0 Z" /></clipPath></defs><sodipodi:namedview
     pagecolor="#ffffff"
     bordercolor="#666666"
     borderopacity="1"
     objecttolerance="10"
     gridtolerance="10"
     guidetolerance="10"
     inkscape:pageopacity="0"
     inkscape:pageshadow="2"
     inkscape:window-width="1920"
     inkscape:window-height="1017"
     id="namedview4138"
     showgrid="false"
     fit-margin-top="2"
     fit-margin-left="2"
     fit-margin-right="2"
     fit-margin-bottom="2"
     inkscape:zoom="0.70710678"
     inkscape:cx="-243.96582"
     inkscape:cy="227.88226"
     inkscape:window-x="-8"
     inkscape:window-y="-8"
     inkscape:window-maximized="1"
     inkscape:current-layer="g4144" /><g
     id="g4144"
     inkscape:groupmode="layer"
     inkscape:label="grafisk profil 2015"
     transform="matrix(1.25,0,0,-1.25,-174.91295,954.72621)"><g
       id="g3875"><path
         d="m 242.45536,762.18097 v -10.65 h -10.525 c -0.0558,-3.60896 -0.0558,-7.26659 0,-10.55 h 10.375 v -14.425 l -0.15,-0.275 c -5.06928,-1.67426 -10.13504,-6.4534 -11.8,-11.625 -2.52999,-7.10629 -0.3192,-15.46734 5.55,-20.425 -4.09263,0.48367 -8.30506,1.14713 -12.5,1.575 -9.96183,0.6511 -21.28632,2.2955 -30.225,-2.225 -8.82706,0.75342 -17.66132,1.03948 -26.6,0.5 -6.63192,-0.75342 -13.66161,-1.19391 -19.475,-4.375 -2.69742,-1.72076 -4.60636,-4.7474 -4.225,-7.975 0.69761,-5.55295 1.89023,-11.08366 3.025,-16.525 -1.45102,-0.42786 -3.0821,-0.8082 -4.375,-1.45 1.34871,-4.63211 2.64372,-9.26789 3.825,-13.9 l 3.525,-14.7 c 1.23716,-5.88032 3.17027,-16.14318 4.4,-23.725 h 188.49021 c 2.61797,16.47484 7.826,36.37754 12.03479,51.125 0.58599,0.80922 -0.52445,0.70526 -0.85,0.975 -1.07897,0.48367 -2.37684,0.59133 -3.4,1.075 0.48367,2.69742 1.24133,5.33108 1.725,8.075 0.59529,3.49734 1.67555,6.89105 1.35,10.5 -0.48367,3.99031 -4.47417,6.47103 -7.925,7.55 -10.61294,3.06947 -22.24122,3.50287 -33.775,3.075 -3.01366,-0.11162 -5.75553,-0.39188 -8.825,-0.55 -4.47399,2.37186 -9.54178,2.96688 -14.825,3.125 -9.47816,0 -18.78401,-1.06523 -27.825,-2.2 4.09263,3.56245 6.35526,8.3476 6.625,13.575 0.42786,7.48765 -4.16576,14.60553 -10.9,17.675 -0.6418,0.42787 -1.47971,0.41633 -2.075,0.9 v 14.525 h 10.675 v 10.65 h -10.525 v 10.675 z m -29.825,-74 c 1.58754,-0.0148 3.18619,-0.0924 4.7,-0.075 7.92482,-0.31625 15.66761,-1.52629 23.425,-2.875 l 0.15,-0.2 0.225,-7.55 c -12.50112,-0.0465 -25.75523,-0.48504 -37.875,-2.15 l -0.15,0.375 -0.55,6.9 c 0.0465,1.77657 1.19898,3.13265 2.65,4.1 2.15677,1.31383 4.77909,1.49962 7.425,1.475 z m 69.1,-0.225 c 0.45562,0.0115 0.8919,0.003 1.35,-0.025 3.49734,0 7.60655,-0.65266 9.225,-4.15 0.26974,-0.80922 0.35813,-1.75997 0.2,-2.625 -0.15813,-2.04631 -0.37445,-4.0345 -0.7,-6.025 -12.50112,1.56264 -25.03844,2.3465 -37.8,2.3 l 0.325,7.7 c 7.86901,1.45102 15.29555,2.31633 23.425,2.8 1.2557,-0.16045 2.60813,-0.009 3.975,0.025 z m -103.625,-2.4 c 3.81708,-10e-4 7.6184,-0.13432 11.525,-0.325 0.59529,-4.09263 1.03552,-8.07711 1.575,-11.9 l -0.05,-0.1 c -11.63609,-2.41838 -22.79916,-5.91761 -32.175,-13.675 -0.26974,1.50683 -0.79898,3.22684 -2.25,4.25 -0.92084,4.94836 -1.87794,9.85922 -2.25,14.975 0,1.61845 1.07048,3.06578 2.475,3.875 2.85554,1.56264 6.29159,1.99133 9.575,2.475 3.92985,0.29765 7.75792,0.42616 11.575,0.425 z m 139.3,-0.425 c 3.91706,-0.014 7.83643,-0.19539 11.85,-0.6 2.96716,-0.42787 6.12178,-0.8571 8.875,-2.15 1.33941,-0.6418 2.52794,-2.05478 2.9,-3.45 0.16742,-1.73006 -0.21106,-3.32574 -0.425,-5 -0.48367,-3.55314 -1.16809,-7.15266 -1.875,-10.65 -1.39522,-1.07897 -2.06106,-2.77166 -2.275,-4.325 -9.47816,7.8039 -20.89821,11.47233 -32.525,13.9 l 1.575,11.95 c 4.06473,0.19068 7.98294,0.33895 11.9,0.325 z"
         id="path3214"
         inkscape:connector-curvature="0"
         sodipodi:nodetypes="cccccccccccccccccccccccccccccccccccccccsccccccccsscccccccssccccccccssccccccccs" /><path
         d="m 251.74422,760.53461 c -0.0558,-3.38572 -0.0558,-7.1342 0,-10.63154 h 10.55713 v -7.40394 c -3.39503,-0.0558 -7.17141,0 -10.61294,0 v -15.94265 c -1.46032,0.0465 -3.12528,0.26974 -4.68792,0.26974 -1.07896,0 -2.10212,-0.22323 -3.18109,-0.38136 l -0.0465,0.38136 v 15.61711 h -10.28739 v 7.48765 c 3.2276,0.10231 6.92027,-0.16743 10.3618,0.0558 v 10.60363 c 2.58579,-0.0558 5.35762,0 7.89691,-0.0558"
         id="path3216"
         inkscape:connector-curvature="0"
         style="fill:#fceb66" /><path
         d="m 251.68841,724.99384 c -0.38136,-1.02316 -1.13477,-1.99051 -1.61845,-3.01366 l -0.0558,-12.92899 h 14.43582 c 0.0558,-1.40452 -0.10232,-2.82764 -0.32555,-4.17635 h -32.85266 c -0.21393,1.2929 -0.37206,2.77183 -0.32555,4.17635 h 14.13818 v 13.0313 c -0.48368,0.96735 -1.09757,1.88819 -1.47893,2.96716 2.5858,0.6418 5.44134,0.53018 8.08294,-0.0558"
         id="path3218"
         inkscape:connector-curvature="0"
         style="fill:#fceb66" /><path
         d="m 244.08914,721.44069 -0.0465,-11.20822 c -4.26006,-0.0558 -8.78055,-0.0558 -12.9848,0 0.42786,5.92501 4.79024,11.74771 10.34319,13.95215 0.37206,0.0558 0.96735,0.86503 1.18128,0.15812 l 1.50683,-2.90205"
         id="path3220"
         inkscape:connector-curvature="0"
         style="fill:#fceb66" /><path
         d="m 264.12443,711.95323 0.32555,-1.77657 c -4.41818,-0.10232 -8.93868,0.0558 -13.30105,0 l 0.0558,11.53378 1.77657,2.90204 c 5.44134,-1.77657 10.17577,-6.99467 11.14312,-12.65925"
         id="path3222"
         inkscape:connector-curvature="0"
         style="fill:#fceb66" /><path
         d="m 263.80818,703.74937 c -1.40452,-5.76689 -6.84586,-10.69664 -12.50113,-11.87793 -5.65527,-1.40451 -11.79421,0.48368 -15.72872,4.89256 -1.77657,2.10212 -3.38572,4.34376 -3.9252,6.98537 l 32.09924,-0.0279 0.0558,0.0279"
         id="path3224"
         inkscape:connector-curvature="0"
         style="fill:#fceb66" /><path
         d="m 240.91736,691.27615 c -0.0558,-1.56264 0.0465,-3.01366 0.0465,-4.5763 -10.4455,1.72076 -21.05844,3.44153 -31.66207,2.85554 -3.07877,-0.48368 -6.5203,-1.61845 -7.86901,-4.79954 -0.69761,-1.9347 0.0558,-4.20425 0,-6.19475 l 1.02316,-10.65945 c -2.90205,0.21394 -6.13895,0.26975 -8.51081,-1.40451 l -0.15813,0.32555 c -0.86503,6.40869 -2.04631,12.76156 -2.74392,19.22606 -0.11162,2.26025 1.12547,4.52979 3.17179,5.76689 5.55295,3.49733 13.08711,3.01366 19.60742,2.85553 9.20841,-0.26974 18.25871,-1.56264 27.09507,-3.39502"
         id="path3226"
         inkscape:connector-curvature="0"
         style="fill:#fceb66" /><path
         d="m 294.28897,693.91776 c 2.64161,-0.38136 5.2274,-1.24639 7.43184,-2.96716 1.99051,-1.50683 2.79973,-3.98101 2.31606,-6.5203 l -2.74392,-18.41684 c -0.6511,0.26975 -1.19059,0.6511 -1.77658,0.92085 -1.944,0.79992 -4.74373,0.75341 -6.89236,0.48367 0.42787,5.27391 1.18128,10.28738 1.45103,15.5613 -0.21394,3.06947 -3.2276,5.06928 -5.86921,5.8692 -2.75322,0.75341 -5.82269,0.53948 -8.83636,0.59529 -8.66893,-0.11162 -16.85419,-1.50683 -25.09526,-2.74392 -0.26974,0.58599 0.10232,1.39521 0,2.20444 0.0465,0.80922 0,1.56264 0.0465,2.31605 11.85002,2.42768 23.86747,3.66477 36.4151,3.2276 1.13478,-0.15812 2.42768,-0.26974 3.55315,-0.53018"
         id="path3228"
         inkscape:connector-curvature="0"
         style="fill:#fceb66" /><path
         d="m 191.41514,691.64821 c -0.91154,-1.55334 -1.83238,-3.06947 -1.72077,-5.00417 -6.25056,0.21393 -12.50112,0.53948 -18.854,0.21393 -4.25075,-0.10231 -8.66893,-0.69761 -12.60344,-1.88819 -2.37186,-0.79992 -4.90185,-2.5858 -5.27391,-5.2181 0,-3.77638 0.85573,-7.59927 1.50683,-11.20823 l 0.6418,-3.60895 c -2.20444,0.97665 -4.79024,0.97665 -7.1621,0.70691 -1.23709,5.32972 -2.31606,10.92918 -3.06947,16.37052 0,3.12528 2.52999,5.76688 5.32972,6.94817 7.11559,2.91134 14.91949,3.12528 22.7327,3.49733 6.29706,0.11162 12.27788,-0.32555 18.47264,-0.80922"
         id="path3230"
         inkscape:connector-curvature="0"
         style="fill:#fceb66" /><path
         d="m 343.08428,689.17403 c 3.2369,-0.91154 7.32953,-3.33922 7.54346,-7.1621 0.21393,-1.72077 -0.38136,-3.28341 -0.53948,-4.90186 -0.69761,-4.14844 -1.66496,-8.18526 -2.52999,-12.27789 -2.31606,0.42787 -5.22741,0.26974 -7.21791,-0.59529 0.75341,4.79024 1.944,9.58978 2.31605,14.53814 -0.26974,2.85554 -3.06947,4.95766 -5.59946,5.65527 -9.16191,2.6416 -18.96562,2.15793 -28.44378,1.944 l -3.11598,-0.11162 c 0.0465,1.944 -0.76271,3.50664 -1.73006,5.01347 11.79421,1.12548 24.12791,1.12548 35.39194,-1.02316 l 3.92521,-1.07896"
         id="path3232"
         inkscape:connector-curvature="0"
         style="fill:#fceb66" /><path
         d="m 252.65576,690.73667 c 0.26974,-1.77657 -0.21393,-3.60896 -0.0558,-5.65527 -0.10231,-5.32972 -0.37205,-10.61293 -0.80922,-15.94265 -2.68811,0.80922 -5.92501,0.80922 -8.66894,-0.0558 -0.59529,7.32952 -0.80922,14.49163 -0.6976,21.76535 3.39502,-0.86504 6.78074,-0.86504 10.23157,-0.11162"
         id="path3234"
         inkscape:connector-curvature="0"
         style="fill:#fceb66" /><path
         d="m 254.59046,664.9345 c 2.64161,-4.84605 -2.20444,-8.61313 -4.30656,-12.43602 0.38136,-0.86503 0.92084,-1.73006 1.46032,-2.52998 1.50683,1.02315 2.5765,2.52998 4.25076,3.49733 1.93469,1.40452 4.14843,3.01367 6.67842,2.20444 3.33922,-1.9347 4.20425,-5.8692 3.82289,-9.58047 -0.26974,-2.53929 -1.45102,-5.22741 -3.9252,-6.19476 -4.37167,-1.13477 -7.59927,2.95786 -10.51062,5.65528 l -0.75342,0.6976 c -0.75341,-0.75341 -1.18128,-1.77657 -1.77657,-2.6416 2.37187,-4.63212 4.36237,-9.42235 7.70159,-13.6266 2.69741,-1.61845 5.8692,-1.72077 8.99448,-2.15793 4.30656,-0.26044 8.89217,-0.31625 13.08711,0.16742 2.26955,0.26974 4.5298,0.69761 6.4645,1.88819 2.48348,2.90205 3.76708,6.40869 5.55295,9.69209 l 1.39522,3.06948 c -0.58599,0.86503 -1.12547,1.88819 -1.77657,2.74392 -2.47419,-2.90205 -5.49715,-5.8134 -9.47816,-5.97152 -1.45103,0 -2.74393,0.96735 -3.60896,2.09282 -1.77657,3.12528 -1.67426,7.43185 -0.53948,10.82687 0.75341,2.15793 3.06947,3.2369 5.28321,3.18109 3.38572,-0.96735 6.13895,-3.82289 8.72474,-6.30637 l 0.15813,0.0558 1.23709,2.91134 c -2.37187,3.45084 -6.62262,7.27372 -3.8787,11.79422 2.04632,2.85554 6.13895,2.74392 9.26423,2.20444 1.88819,-0.53018 4.03682,-1.99051 4.47399,-4.03682 0.6976,-3.82289 -1.88819,-7.1063 -4.47399,-9.85022 l 1.23709,-3.02296 h 0.26974 c 3.29271,2.58579 6.73424,5.92501 11.15242,4.79953 2.91134,-1.46032 3.49733,-4.79953 3.55314,-7.75739 -0.0558,-3.06947 -1.9347,-5.92501 -4.73443,-7.1621 -4.26005,-1.46033 -7.11559,2.5858 -9.8037,5.32972 -0.26975,0.32555 -0.48368,0.69761 -0.86504,1.02316 -0.69761,-0.75342 -1.18128,-1.77658 -1.72076,-2.64161 2.14863,-4.19495 4.19494,-8.34338 6.99467,-12.22208 1.67426,-1.88819 4.14844,-2.10212 6.52031,-2.53929 6.73423,-1.02316 14.16608,-0.96735 20.74219,0.59529 1.06966,0.42787 2.41837,0.59529 3.11598,1.72076 2.42767,3.34852 4.31586,6.84586 6.25056,10.3432 -0.37206,0.97665 -0.96735,1.77657 -1.45102,2.69741 h -0.26974 c -2.52999,-2.31605 -5.28322,-4.30656 -8.45501,-5.11579 -2.31605,-0.26974 -4.52979,0.5953 -5.71107,2.52999 -1.77658,3.49734 -1.40452,8.18526 0.42786,11.58029 1.50683,2.15793 4.36237,2.20444 6.57611,1.56264 3.11598,-1.13478 5.54366,-3.82289 7.70159,-6.40869 0.75341,0.80922 1.45102,1.60915 2.20444,2.47418 -2.20444,3.12528 -5.22741,7.00398 -3.12528,10.98499 2.15793,3.2369 6.79004,2.96716 10.07345,2.15793 1.07896,-0.21393 2.15793,-0.6511 3.18109,-1.02315 l -2.96716,-9.90603 -4.09263,-15.78453 c -1.83238,-7.86901 -3.33921,-15.78453 -4.5763,-23.64424 H 154.7861 c -0.42786,1.9347 -0.6418,4.25076 -1.02316,6.08314 -2.41837,14.86369 -5.8692,29.68087 -10.23157,43.94926 3.8787,1.40452 8.94798,2.69742 12.44531,-0.37205 1.12548,-1.2464 1.72077,-2.79973 1.39522,-4.5298 -0.53018,-2.79973 -2.14863,-5.00417 -3.8787,-7.21791 l 2.10213,-2.5858 h 0.16742 c 2.14863,2.5858 4.41818,5.01347 7.37604,6.36218 1.67425,0.53948 3.87869,0.6418 5.38553,-0.38136 2.85553,-2.14863 2.85553,-6.08314 2.74392,-9.32003 -0.26974,-2.26025 -1.33941,-4.67862 -3.55315,-5.54366 -1.9347,-0.91154 -4.14844,-0.42786 -5.8692,0.53949 -2.04632,1.13477 -4.03682,2.68811 -5.71108,4.30656 l -0.15813,-0.0558 -1.61844,-2.5858 c 1.67425,-3.38572 3.60895,-6.67843 5.65527,-9.85021 1.02315,-2.31606 3.60895,-2.26955 5.55295,-2.85554 7.10629,-1.34871 15.18924,-1.34871 22.29553,0.53948 3.49734,0.96735 4.47399,4.84605 6.5203,7.48765 l 3.39503,6.24126 c -0.49298,0.96735 -1.07897,1.83239 -1.61845,2.75323 -2.96716,-3.02297 -6.03663,-7.43185 -10.66874,-6.4645 -2.79973,1.02316 -4.73443,4.14844 -4.79024,7.1063 -0.0558,2.85553 0.48367,5.71107 2.74392,7.64577 1.72077,0.97665 3.82289,0.49298 5.49715,-0.10231 2.41837,-1.13478 4.46468,-2.91135 6.56681,-4.5298 l 0.16742,0.11162 1.18129,2.91134 c -2.64161,3.12529 -6.13895,7.16211 -3.76708,11.35705 2.09282,2.96716 6.13894,3.2369 9.36654,2.5858 1.50683,-0.26974 3.06947,-1.12547 3.82289,-2.6323 0.59529,-1.40452 1.02315,-3.39503 0.21393,-4.84605 -0.96735,-2.37187 -2.79973,-4.36237 -4.30656,-6.5203 0.42786,-0.96735 0.6976,-2.10213 1.29289,-3.01367 2.52999,2.36257 4.95767,4.94836 8.08295,6.13895 1.07896,0.32555 2.20444,-0.11162 3.22759,-0.32555 3.33922,-1.34871 3.60896,-5.22741 3.55315,-8.51081 -0.21393,-2.5858 -0.79992,-5.49715 -3.38572,-6.67843 -4.5856,-1.61845 -8.19456,2.31606 -10.99429,5.59946 h -0.10232 l -1.73006,-2.79973 c 1.83238,-4.03682 3.66476,-8.12945 6.03663,-11.95234 1.13477,-1.51613 2.91134,-1.83238 4.5763,-2.26955 7.48765,-1.39521 16.15659,-1.23709 23.54192,0.6511 2.63231,0.91154 3.28341,3.93451 4.73443,5.98082 l 4.14844,8.34339 c -0.48367,0.92084 -1.07897,1.77657 -1.61845,2.6416 -3.01366,-2.79973 -6.13894,-7.05978 -10.71525,-6.40868 -2.74392,0.86503 -4.20425,3.71127 -4.41818,6.46449 -0.31625,3.44153 0.48368,7.32023 3.60896,9.32004 2.48348,1.12547 4.95766,-0.5953 6.94817,-2.04632 1.56264,-1.07897 2.69741,-2.42767 4.14843,-3.60895 0.53949,0.85573 1.07897,1.72076 1.40452,2.6323 -2.26955,3.93451 -7.11559,8.29688 -3.60895,13.08711 2.52999,3.02297 7.10629,3.02297 10.65944,1.83239 1.23709,-0.53949 2.26024,-1.45103 3.01366,-2.5858"
         id="path3236"
         inkscape:connector-curvature="0"
         style="fill:#fceb66" /><path
         d="m 241.13129,675.60324 0.10231,-0.16743 c 0.0558,-2.47418 0.22324,-4.67862 0.32555,-7.05048 -2.26024,-1.83238 -3.76708,-4.36237 -3.2834,-7.32953 0.75342,-3.11598 2.74392,-5.75758 4.68792,-8.34338 -0.11162,-0.21394 -0.11162,-0.42787 -0.26974,-0.53949 -2.5858,2.42768 -5.28321,4.74373 -8.67824,5.32972 -2.14863,0.32555 -4.03682,-1.18128 -5.16229,-2.95785 -2.21374,-3.50664 -2.5858,-9.1061 -0.32555,-12.77087 0.96735,-1.82308 2.85554,-3.44153 4.95766,-3.49733 3.92521,0.0558 6.89236,3.2834 9.7479,5.81339 0.21394,-0.10232 0.26974,-0.37206 0.42787,-0.58599 -1.88819,-3.8787 -3.60896,-7.86901 -6.08314,-11.53377 -1.2929,-1.77658 -3.56245,-1.50684 -5.38553,-2.09283 -6.67842,-1.13477 -13.46847,-1.02315 -19.93296,0.31625 -3.66477,0.59529 -4.41818,4.63211 -6.03663,7.21791 l -2.47418,5.71108 c 0.0558,0.15813 0.15812,0.32555 0.32555,0.48368 2.68811,-3.06948 6.19475,-5.86921 10.50131,-5.11579 2.96716,0.86503 4.63211,3.9345 5.01347,6.89236 0.37206,4.04612 0.15813,8.89217 -3.77638,11.09661 -1.87889,1.07896 -4.5763,0.86503 -6.35288,-0.32555 -2.10212,-1.23709 -3.72057,-2.95786 -5.55295,-4.67862 -0.75342,0.6418 0.16743,1.06966 0.43717,1.60914 2.20444,2.96716 5.05998,6.30638 3.71127,10.23158 -0.58599,1.78587 -2.26025,3.34851 -3.98101,3.99031 -0.32555,0.26974 -0.16743,0.69761 -0.26975,1.02316 -0.16742,1.61845 -0.32555,3.45083 -0.42786,5.1716 12.16627,1.56264 24.61159,2.37186 37.21503,2.15793 l 0.53948,-0.0558"
         id="path3238"
         inkscape:connector-curvature="0"
         style="fill:#e4474a" /><path
         d="m 291.64736,673.23138 c -0.21393,-2.04632 -0.15812,-4.09263 -0.6418,-6.08314 -1.944,-0.6511 -3.87869,-2.5858 -4.41818,-4.58561 -0.86503,-4.36237 2.42768,-7.53416 4.68793,-10.77105 -0.11162,-0.21394 -0.11162,-0.42787 -0.26975,-0.58599 -3.33921,3.01366 -7.1621,7.53415 -12.00814,5.11578 -4.14844,-2.48348 -4.09263,-7.70158 -3.56245,-12.06395 0.43716,-2.48349 2.05561,-5.06928 4.5856,-5.92502 4.30657,-0.86503 7.97133,1.9347 10.71525,5.00417 0.32555,-0.21393 0.42787,-0.75341 0.15813,-1.07896 -1.60915,-3.28341 -2.95786,-6.72494 -4.90186,-9.79441 -1.2929,-2.26955 -3.82289,-2.48348 -6.08313,-2.96716 -4.30657,-0.48367 -8.62243,-0.75341 -12.9848,-0.32555 -2.84624,0.32555 -5.97152,0.70691 -8.61313,1.8882 -2.47418,2.6416 -3.76708,5.81339 -5.49714,8.83635 l -1.66496,3.55315 c 0.0558,0.26974 0.21393,0.48368 0.42787,0.6418 3.45083,-2.85554 7.1621,-7.43184 12.06395,-5.27391 3.2369,2.04631 4.41818,5.81339 4.26006,9.47816 -0.16743,3.49734 -1.40452,7.21791 -4.74373,8.88286 -3.55315,0.86504 -6.62262,-1.45102 -9.32004,-3.55314 l -1.56264,-1.50683 -0.37205,0.53948 c 2.47418,3.39502 6.08313,7.00398 4.73442,11.63609 -0.58599,1.56264 -1.77657,2.90205 -3.11597,3.98101 0.10231,2.37187 0.31624,4.79954 0.37205,7.27372 5.65527,0.26974 11.31054,-0.0558 16.80769,-0.26974 6.83655,-0.42787 14.16608,-1.18128 20.94682,-2.04631"
         id="path3240"
         inkscape:connector-curvature="0"
         style="fill:#e4474a" /><path
         d="m 192.4383,665.41817 c -1.72077,-1.87889 -2.10213,-4.52049 -1.2929,-6.83655 0.80922,-2.42767 2.58579,-4.5763 4.26005,-6.40869 l -0.32555,-0.75341 c -3.2369,2.6416 -7.27372,6.08313 -11.7384,4.30656 -3.50664,-2.04631 -3.77639,-6.19475 -3.83219,-9.90602 0.11161,-0.59529 0.11161,-1.13478 0.26974,-1.73007 0.53948,-2.26025 1.9998,-4.90185 4.47399,-5.75759 4.79023,-2.04631 8.72474,2.20444 11.69189,5.54366 0.26975,-0.10232 0.21394,-0.42787 0.37206,-0.59529 -2.04631,-3.92521 -4.03682,-7.97133 -6.94817,-11.46867 -1.93469,-1.61845 -4.63211,-1.72076 -6.94817,-2.20444 -5.17159,-0.53948 -10.61293,-0.53948 -15.88684,0.31625 -1.99051,0.53948 -4.47399,0.6511 -5.65527,2.85554 -1.83238,2.69742 -3.28341,5.60876 -4.84605,8.455 -0.0558,0.32555 0.15813,0.49298 0.31625,0.75342 h 0.22324 c 2.95785,-2.63231 6.35287,-5.38553 10.55712,-4.35307 2.36256,0.48367 4.5763,2.84624 5.05998,5.16229 0.80922,3.33922 0.53948,6.90166 -0.80923,9.97114 -1.23709,2.37186 -3.82288,3.87869 -6.56681,3.55314 -3.72057,-0.42786 -6.5203,-3.33921 -9.1061,-6.09243 -0.21393,0 -0.21393,0.26974 -0.38136,0.43716 1.2929,2.04632 2.75323,3.98102 3.45084,6.35288 9.32003,8.18526 20.73289,12.23138 32.69453,14.38001 l 0.96735,-5.98082"
         id="path3242"
         inkscape:connector-curvature="0"
         style="fill:#e4474a" /><path
         d="m 336.46166,656.53531 c 0.75342,-2.31606 2.15793,-4.36238 3.55315,-6.40869 -0.0465,-0.15812 -0.10232,-0.38136 -0.31625,-0.48367 -3.12528,3.22759 -6.90166,7.32022 -11.74771,5.98082 -1.02316,-0.26975 -1.83238,-0.80923 -2.68811,-1.40452 -2.91135,-3.28341 -3.2369,-8.02714 -2.26955,-12.17557 0.59529,-2.26025 2.58579,-4.40888 4.85534,-4.94837 4.19495,-1.07896 7.91552,1.83239 11.08731,4.36238 0.70691,-0.53949 -0.0465,-1.2464 -0.21393,-1.77658 -1.77658,-3.07877 -3.28341,-6.30637 -5.86921,-8.94798 -3.65546,-1.61844 -7.53416,-1.83238 -11.63609,-1.93469 -5.05998,0.0558 -10.50131,0.10231 -15.02181,1.9905 -2.31606,1.72077 -3.2834,4.41818 -4.74373,6.73424 l -2.79973,5.27391 0.26974,0.80923 c 2.91135,-3.12528 6.30637,-7.37604 10.93849,-5.92502 3.22759,0.80923 5.27391,4.14844 5.54365,7.27372 0.21393,3.82289 -0.11162,8.29688 -3.71127,10.3432 -4.41818,1.83238 -8.46431,-1.46033 -11.6919,-4.20425 -1.07897,1.13477 1.07896,1.944 1.39521,2.91135 1.88819,2.37186 3.50664,5.44133 2.5858,8.55731 -0.21393,0.97665 -0.85573,1.73007 -1.39521,2.48349 0.26974,1.9905 0.6976,4.03682 1.07896,5.98082 12.00815,-2.26955 23.31869,-6.30637 32.79685,-14.49163"
         id="path3244"
         inkscape:connector-curvature="0"
         style="fill:#e4474a" /></g><g
       transform="matrix(0.92627878,0,0,0.92627878,-236.28215,53.729407)"
       inkscape:label="dsb_konseptutredning-sivilforsvaret_2016_sideoppslag_pdf_web"
       id="g10"
       style="fill:#fceb66;fill-opacity:1;stroke:#000000;stroke-width:1.72734177;stroke-miterlimit:4;stroke-dasharray:none;stroke-opacity:1"><g
         transform="matrix(15.225214,0,0,15.225214,-5837.1312,-4852.719)"
         style="fill:#fceb66;fill-opacity:1;stroke:#000000;stroke-width:0.11345271;stroke-miterlimit:4;stroke-dasharray:none;stroke-opacity:1"
         id="g1081"><g
           style="fill:#fceb66;fill-opacity:1;stroke:#000000;stroke-width:0.11345271;stroke-miterlimit:4;stroke-dasharray:none;stroke-opacity:1"
           id="g204"><g
             style="fill:#fceb66;fill-opacity:1;stroke:#000000;stroke-width:0.11345271;stroke-miterlimit:4;stroke-dasharray:none;stroke-opacity:1"
             id="g206"
             clip-path="url(#clipPath210)"><g
               style="fill:#fceb66;fill-opacity:1;stroke:#000000;stroke-width:0.11345271;stroke-miterlimit:4;stroke-dasharray:none;stroke-opacity:1"
               id="g212"
               transform="translate(418.1125,355.8405)"><path
                 d="M 0,0 C -0.74658758,-0.02093275 0.18291236,0.12243883 0.54294807,-0.11566647 0.62132426,-0.20620408 0.49736187,-0.29649993 0.45058915,-0.33146105 0.38017926,-0.20911342 0,0 -0.35870814,-0.0078"
                 style="fill:#fceb66;fill-opacity:1;fill-rule:nonzero;stroke:#000000;stroke-width:0.11345271;stroke-linecap:butt;stroke-linejoin:miter;stroke-miterlimit:4;stroke-dasharray:none;stroke-opacity:1"
                 id="path214"
                 inkscape:connector-curvature="0"
                 sodipodi:nodetypes="cccc" /></g><g
               style="fill:#fceb66;fill-opacity:1;stroke:#000000;stroke-width:0.11345271;stroke-miterlimit:4;stroke-dasharray:none;stroke-opacity:1"
               id="g216"
               transform="translate(416.8761,355.8737)"><path
                 d="m 0,0 c 0.02,-0.002 0.047,-0.048 0.075,-0.073 0.027,-0.027 0.056,-0.035 0.093,-0.033 0.038,0.002 0.084,0.012 0.135,0.025 0.052,0.015 0.12017946,0.05594864 0.19417946,0.06294864 0.074,0.008 0.2925124,-0.01494864 0.3805124,-0.02294864 C 0.71769186,-0.127 0.402,-0.191 0.291,-0.213 0.177,-0.234 0.128,-0.211 0.082,-0.182 0.037,-0.153 -0.006,-0.118 -0.021,-0.079 -0.035,-0.039 -0.02,0.002 0,0"
                 style="fill:#fceb66;fill-opacity:1;fill-rule:nonzero;stroke:#000000;stroke-width:0.11345271;stroke-linecap:butt;stroke-linejoin:miter;stroke-miterlimit:4;stroke-dasharray:none;stroke-opacity:1"
                 id="path218"
                 inkscape:connector-curvature="0"
                 sodipodi:nodetypes="cccccccccc" /></g><g
               style="fill:#fceb66;fill-opacity:1;stroke:#000000;stroke-width:0.11345271;stroke-miterlimit:4;stroke-dasharray:none;stroke-opacity:1"
               id="g220"
               transform="translate(419.4959,357.1934)"><path
                 d="m 0,0 c 0.008,-0.012 -0.008,-0.042 -0.042,-0.066 -0.033,-0.021 -0.084,-0.036 -0.102,-0.027 -0.019,0.01 -0.005,0.042 0.012,0.059 0.018,0.018 0.047,0.039 0.074,0.046 C -0.032,0.018 -0.008,0.01 0,0"
                 style="fill:#fceb66;fill-opacity:1;fill-rule:nonzero;stroke:#000000;stroke-width:0.11345271;stroke-linecap:butt;stroke-linejoin:miter;stroke-miterlimit:4;stroke-dasharray:none;stroke-opacity:1"
                 id="path222"
                 inkscape:connector-curvature="0" /></g><g
               style="fill:#fceb66;fill-opacity:1;stroke:#000000;stroke-width:0.11345271;stroke-miterlimit:4;stroke-dasharray:none;stroke-opacity:1"
               id="g224"
               transform="translate(418.52,355.2457)"><path
                 d="m 0,0 c -0.10560838,-0.01352295 -0.266,0.034 -0.36,0.033 -0.095,-0.001 -0.161,-0.017 -0.211,-0.03 -0.051,-0.011 -0.088,-0.02 -0.11,-0.004 -0.023,0.015 -0.033,0.053 -0.038,0.094 -0.004,0.041 -0.004,0.085 0.002,0.144 0.008,0.058 0.022,0.132 0.048,0.145 C -0.641,0.396 -0.602,0.35 -0.548,0.313 -0.443,0.231 -0.289,0.21 -0.157,0.221 -0.092,0.223 -0.03,0.223 0.015,0.245 0.058,0.269 0.082,0.318 0.106,0.373 0.13,0.431 0.152,0.496 0.127,0.595 0.102,0.694 0.03,0.825 -0.022,0.9 -0.072,0.976 -0.103,0.992 -0.143,0.995 -0.222,0.992 -0.337,0.961 -0.439,0.941 -0.49,0.928 -0.536,0.911 -0.574,0.875 -0.61,0.84 -0.638,0.787 -0.653,0.732 -0.667,0.677 -0.668,0.617 -0.69,0.614 -0.712,0.612 -0.754,0.665 -0.781,0.717 -0.835,0.823 -0.84,0.929 -0.846,1.038 c -0.001,0.056 0.002,0.111 0.009,0.155 0.006,0.046 0.017,0.081 0.057,0.116 0.038,0.033 0.108,0.068 0.116,0.093 0.007,0.024 -0.045,0.039 -0.078,0.058 -0.032,0.015 -0.042,0.037 -0.009,0.065 0.033,0.027 0.11,0.062 0.23,0.122 0.12,0.059 0.283,0.145 0.384,0.194 0.102,0.051 0.14,0.064 0.183,0.082 C 2.5438454,3.0723556 0.93150416,0.29333933 0.8561004,0.24664051 0.5845842,0.13054073 0.29400145,0.03764633 0,0 Z"
                 style="fill:#fceb66;fill-opacity:1;fill-rule:nonzero;stroke:#000000;stroke-width:0.11345271;stroke-miterlimit:4;stroke-dasharray:none;stroke-opacity:1"
                 id="path226"
                 inkscape:connector-curvature="0"
                 sodipodi:nodetypes="scccccsccccscccccccccccccccccs" /></g><g
               style="fill:#fceb66;fill-opacity:1;stroke:#000000;stroke-width:0.11345271;stroke-miterlimit:4;stroke-dasharray:none;stroke-opacity:1"
               id="g232"
               transform="translate(418.3716,341.8753)"><path
                 d="m 0,0 c -0.02,0.132 -0.035,0.266 -0.044,0.357 -0.01,0.095 -0.014,0.149 0.016,0.184 0.031,0.031 0.094,0.045 0.218,0.054 0.126,0.01 0.311,0.012 0.457,0.022 0.146,0.01 0.251,0.025 0.323,0.057 0.073,0.031 0.111,0.079 0.115,0.107 0.002,0.03 -0.029,0.041 -0.09,0.04 C 0.935,0.82 0.847,0.804 0.76,0.796 0.673,0.789 0.587,0.79 0.525,0.809 0.464,0.829 0.427,0.868 0.419,0.912 0.412,0.956 0.435,1.006 0.414,1.014 0.391,1.023 0.325,0.993 0.273,0.967 0.22,0.942 0.184,0.919 0.178,0.942 0.172,0.966 0.196,1.033 0.222,1.091 0.249,1.149 0.278,1.2 0.31,1.275 0.344,1.349 0.38,1.45 0.423,1.48 0.466,1.51 0.515,1.47 0.567,1.434 0.622,1.397 0.681,1.363 0.757,1.336 0.831,1.309 0.923,1.288 1.022,1.266 1.12,1.243 1.224,1.22 1.334,1.227 1.443,1.236 1.557,1.275 1.636,1.302 1.716,1.328 1.761,1.34 1.806,1.369 1.853,1.395 1.9,1.438 1.953,1.472 2.005,1.508 2.063,1.537 2.141,1.585 2.22,1.631 2.321,1.694 2.374,1.827 2.427,1.961 2.433,2.161 2.444,2.353 2.454,2.544 2.469,2.724 2.425,2.842 2.381,2.959 2.276,3.013 2.144,3.079 2.013,3.143 1.855,3.22 1.751,3.261 1.647,3.303 1.597,3.31 1.559,3.318 1.523,3.327 1.497,3.338 1.482,3.315 1.466,3.292 1.459,3.235 1.447,3.162 1.436,3.089 1.421,2.999 1.385,2.932 1.351,2.863 1.298,2.817 1.247,2.774 1.195,2.731 1.146,2.691 1.099,2.677 1.053,2.666 1.009,2.681 0.995,2.717 0.982,2.752 0.999,2.808 1.001,2.874 1.001,3.002 0.983,3.146 0.928,3.264 0.899,3.322 0.856,3.383 0.811,3.445 0.767,3.509 0.722,3.577 0.652,3.657 0.583,3.736 0.487,3.828 0.435,3.893 0.384,3.957 0.329,3.999 0.311,4.029 0.281,4.087 0.245,4.11 0.171,4.21 0.143,4.246 0.126,4.263 0.088,4.316 0.05,4.37 0.012,4.436 -0.019,4.58 -0.05,4.726 -0.038,4.99 0.062,5.271 v 0 C -0.024,5.167 -0.556,4.996 -0.759,4.866 -0.963,4.736 -1.143,4.58 -1.289,4.49 -1.437,4.398 -1.509,4.34 -1.573,4.254 -1.637,4.169 -1.692,4.053 -1.693,3.955 c 0,-0.099 0.056,-0.18 0.111,-0.243 0.057,-0.062 0.116,-0.108 0.17,-0.123 0.053,-0.016 0.103,-0.002 0.148,0.009 0.045,0.012 0.086,0.023 0.11,-0.007 C -1.13,3.562 -1.123,3.49 -1.12,3.354 -1.118,3.217 -1.121,3.014 -1.158,2.777 -1.193,2.538 -1.264,2.265 -1.309,2.116 -1.355,1.962 -1.375,1.934 -1.402,1.906 -1.427,1.881 -1.457,1.856 -1.493,1.856 c -0.036,0 -0.077,0.025 -0.14,0.05 C -1.695,1.934 -1.78,1.962 -1.85,1.986 -1.921,2.007 -1.978,2.023 -2.007,2.009 -2.036,1.994 -2.036,1.951 -2.031,1.913 -2.025,1.874 -2.014,1.839 -1.977,1.747 -1.939,1.651 -1.876,1.496 -1.838,1.367 -1.799,1.237 -1.785,1.133 -1.784,1.068 -1.783,1.004 -1.795,0.979 -1.803,0.947 -1.811,0.916 -1.818,0.879 -1.863,0.872 -1.907,0.864 -1.99,0.888 -2.1,0.919 -2.21,0.949 -2.346,0.986 -2.458,0.994 -2.567,1.002 -2.651,0.981 -2.696,0.949 -2.74,0.917 -2.746,0.877 -2.719,0.827 -2.692,0.779 -2.635,0.726 -2.558,0.642 -2.483,0.56 -2.387,0.45 -2.297,0.341 c 0.091,-0.109 0.179,-0.217 0.189,-0.305 0.01,-0.087 -0.055,-0.158 -0.106,-0.208 -0.052,-0.052 -0.09,-0.082 -0.135,-0.117 -0.047,-0.034 -0.102,-0.071 -0.149,-0.103 -0.048,-0.032 -0.087,-0.058 -0.098,-0.05 -0.01,0.009 0.009,0.052 0.029,0.103 0.018,0.052 0.038,0.114 0.034,0.155 -0.005,0.043 -0.032,0.063 -0.064,0.058 -0.032,-0.008 -0.068,-0.041 -0.096,-0.068 -0.027,-0.024 -0.045,-0.041 -0.078,-0.057 -0.034,-0.014 -0.082,-0.027 -0.106,0.018 -0.025,0.043 -0.028,0.145 -0.045,0.269 -0.017,0.126 -0.05,0.272 -0.085,0.399 -0.035,0.125 -0.074,0.23 -0.106,0.286 -0.031,0.054 -0.055,0.06 -0.078,0.072 C -3.213,0.806 -3.236,0.825 -3.284,0.807 -3.334,0.79 -3.411,0.733 -3.485,0.663 -3.561,0.59 -3.633,0.506 -3.705,0.395 -3.776,0.283 -3.845,0.145 -3.887,0.038 -3.928,-0.068 -3.942,-0.143 -3.955,-0.21 c -0.013,-0.07 -0.027,-0.132 -0.051,-0.146 -0.024,-0.014 -0.059,0.022 -0.103,0.052 -0.043,0.03 -0.095,0.055 -0.123,0.028 -0.028,-0.028 -0.031,-0.108 -0.031,-0.179 0,-0.071 0.003,-0.13 -0.01,-0.137 -0.014,-0.005 -0.044,0.043 -0.079,0.079 -0.036,0.034 -0.077,0.055 -0.107,0.087 -0.053,0.061 -0.087,0.154 -0.149,0.229 -0.025,0.036 -0.052,0.069 -0.034,0.119 0.018,0.05 0.081,0.117 0.175,0.21 0.094,0.093 0.22,0.211 0.321,0.298 0.1,0.087 0.173,0.142 0.201,0.198 0.029,0.054 0.01,0.11 -0.053,0.093 C -4.062,0.702 -4.17,0.61 -4.276,0.521 -4.381,0.434 -4.484,0.35 -4.566,0.295 -4.648,0.241 -4.711,0.218 -4.754,0.198 -4.796,0.18 -4.817,0.163 -4.836,0.173 c -0.02,0.009 -0.039,0.044 -0.054,0.083 -0.016,0.04 -0.029,0.082 -0.066,0.084 -0.037,0 -0.097,-0.042 -0.136,-0.091 -0.04,-0.046 -0.057,-0.099 -0.075,-0.1 -0.019,-0.001 -0.038,0.05 -0.046,0.138 -0.009,0.086 -0.006,0.21 -0.006,0.297 0.001,0.087 0,0.139 0.025,0.162 0.025,0.025 0.076,0.02 0.145,0.025 0.067,0.005 0.152,0.017 0.273,0.045 0.122,0.03 0.282,0.076 0.398,0.11 0.116,0.034 0.192,0.054 0.217,0.082 0.027,0.029 0.002,0.066 -0.041,0.072 C -4.246,1.085 -4.311,1.06 -4.402,1.04 -4.493,1.022 -4.612,1.01 -4.689,1.004 -4.765,0.998 -4.799,0.998 -4.833,0.999 -4.869,1.002 -4.906,1.005 -4.924,1.025 -4.943,1.045 -4.947,1.082 -4.951,1.123 -4.954,1.164 -4.961,1.208 -4.992,1.21 -5.025,1.21 -5.083,1.164 -5.132,1.123 -5.181,1.082 -5.22,1.044 -5.223,1.064 c -0.003,0.019 0.032,0.096 0.064,0.172 0.031,0.075 0.061,0.146 0.09,0.226 0.03,0.078 0.06,0.162 0.104,0.182 0.043,0.021 0.101,-0.02 0.167,-0.05 0.065,-0.03 0.137,-0.048 0.2,-0.077 0.062,-0.027 0.115,-0.066 0.238,-0.084 0.122,-0.019 0.312,-0.017 0.458,-0.002 0.29,0.037 0.424,0.098 0.619,0.255 0.095,0.085 0.198,0.202 0.302,0.366 0.106,0.163 0.211,0.371 0.269,0.568 0.058,0.197 0.066,0.384 -0.002,0.635 C -2.782,3.508 -2.928,3.824 -3.02,4.021 -3.112,4.218 -3.151,4.294 -3.189,4.32 -3.227,4.348 -3.265,4.323 -3.309,4.305 -3.353,4.286 -3.403,4.275 -3.501,4.282 -3.6,4.293 -3.747,4.323 -3.84,4.369 -3.932,4.414 -3.971,4.478 -4.002,4.522 -4.034,4.565 -4.058,4.59 -4.051,4.601 c 0.006,0.012 0.043,0.004 0.099,0.014 0.057,0.008 0.132,0.031 0.214,0.058 0.08,0.027 0.165,0.059 0.236,0.088 0.133,0.053 0.201,0.103 0.27,0.22 0.035,0.051 0.079,0.112 0.115,0.209 0.036,0.098 0.064,0.234 0.071,0.323 0.009,0.088 -0.003,0.124 0.039,0.163 0.041,0.041 0.133,0.083 0.236,0.136 0.104,0.051 0.217,0.116 0.421,0.203 0.203,0.089 0.497,0.201 0.665,0.271 0.166,0.069 0.206,0.092 0.254,0.12 0.046,0.028 0.1,0.061 0.16,0.063 0.06,0.002 0.128,-0.026 0.187,-0.055 0.058,-0.03 0.107,-0.063 0.158,-0.062 0.053,0.003 0.109,0.038 0.178,0.071 0.07,0.032 0.153,0.06 0.218,0.085 0.065,0.026 0.112,0.051 0.167,0.09 0.053,0.039 0.117,0.092 0.181,0.131 0.064,0.039 0.13,0.065 0.142,0.13 0.01,0.065 -0.034,0.169 -0.1,0.286 -0.063,0.115 -0.148,0.242 -0.239,0.371 -0.089,0.128 -0.185,0.261 -0.304,0.36 -0.12,0.101 -0.265,0.168 -0.398,0.229 C -1.215,8.166 -1.335,8.219 -1.44,8.286 -1.544,8.354 -1.633,8.437 -1.699,8.51 -1.763,8.583 -1.803,8.647 -1.838,8.685 -1.871,8.724 -1.9,8.739 -1.919,8.727 -1.937,8.717 -1.943,8.68 -1.954,8.625 -1.966,8.57 -1.98,8.497 -1.994,8.422 -2.106,8.52 -2.213,8.623 -2.303,8.718 -2.393,8.812 -2.465,8.897 -2.542,9.02 -2.619,9.142 -2.68,9.266 -2.745,9.372 -2.81,9.478 -2.79,9.856 -2.808,9.905 v 0 C -2.854,9.922 -3.2765245,10.053835 -3.3005245,10.078835 -4.5336541,11.620098 -4.4838392,10.963425 -2.858,11.908 0.48517205,13.716831 0.47537113,10.023419 0.676,9.443 0.842,9.169 1.116,8.699 1.443,8.144 1.77,7.589 2.137,6.982 2.344,6.644 2.55,6.306 2.595,6.236 2.661,6.134 2.727,6.033 2.812,5.899 2.908,5.785 3.003,5.669 3.108,5.573 3.171,5.508 3.236,5.443 3.256,5.409 3.298,5.378 3.338,5.35 3.4,5.323 3.514,5.257 3.627,5.19 3.794,5.083 3.954,5.022 4.279,4.904 4.567,4.96 4.873,5.093 5.028,5.16 5.19,5.252 5.308,5.371 5.427,5.492 5.505,5.638 5.561,5.776 5.616,5.914 5.65,6.042 5.633,6.22 5.615,6.398 5.547,6.624 5.462,6.799 5.378,6.973 5.277,7.096 5.039,7.274 4.802,7.455 4.426,7.693 4.15,7.852 3.874,8.011 3.696,8.096 3.567,8.156 3.438,8.217 3.358,8.254 3.249,8.337 3.14,8.42 3,8.551 2.894,8.735 2.788,8.921 2.713,9.16 2.669,9.322 2.627,9.484 2.635,9.565 2.638,9.686 c 0.004,0.128 0.053,0.263 0.091,0.378 0.038,0.117 0.087,0.205 0.115,0.255 0.036,0.063 0.025,0.059 0.061,0.121 0.018,0.031 0.047,0.076 0.08,0.116 0.031,0.039 0.044,0.065 0.123,0.151 0.082,0.085 0.216,0.193 0.384,0.278 0.168,0.085 0.368,0.146 0.508,0.177 0.141,0.029 0.221,0.029 0.268,0.066 0.047,0.037 0.06,0.113 0.076,0.183 0.018,0.072 0.038,0.139 0.068,0.207 0.03,0.067 0.068,0.136 0.103,0.187 0.037,0.053 0.068,0.087 0.093,0.078 0.025,-0.011 0.044,-0.067 0.055,-0.154 0.009,-0.088 0.009,-0.207 -0.004,-0.326 0.167,0.077 0.307,0.22 0.369,0.389 0.063,0.172 0.048,0.369 0.026,0.514 -0.023,0.146 -0.054,0.24 -0.12,0.331 -0.067,0.09 -0.171,0.178 -0.274,0.264 -0.102,0.084 -0.202,0.165 -0.276,0.243 -0.072,0.081 -0.119,0.159 -0.132,0.263 -0.013,0.102 0.006,0.232 0.016,0.332 0.009,0.1 0.008,0.172 0.02,0.185 0.011,0.015 0.036,-0.028 0.273,-0.165 0.237,-0.133 0.685,-0.36 0.958,-0.51 0.273,-0.148 0.371,-0.218 0.446,-0.318 0.076,-0.097 0.129,-0.222 0.159,-0.333 0.03,-0.114 0.039,-0.214 0.052,-0.298 0.014,-0.082 0.033,-0.148 0.058,-0.16 0.023,-0.013 0.056,0.03 0.077,0.084 0.021,0.052 0.031,0.116 0.039,0.194 0.008,0.076 0.012,0.168 0.032,0.186 0.022,0.018 0.058,-0.037 0.081,-0.092 0.022,-0.055 0.03,-0.11 0.036,-0.174 0.006,-0.064 0.011,-0.136 0.01,-0.233 0,-0.097 -0.008,-0.217 -0.066,-0.338 C 6.384,11.646 6.273,11.527 6.201,11.445 6.131,11.364 6.1,11.32 6.05,11.285 6,11.249 5.93,11.22 5.875,11.196 5.82,11.172 5.779,11.155 5.724,11.141 5.67,11.128 5.601,11.12 5.334,11.098 5.067,11.074 4.6,11.034 4.308,10.97 4.015,10.905 3.895,10.814 3.812,10.747 3.659,10.622 3.727,10.689 3.649,10.631 3.615,10.603 3.463,10.455 3.428,10.397 3.392,10.339 3.36,10.253 3.326,10.153 3.294,10.058 3.262,9.956 3.256,9.823 3.251,9.69 3.271,9.527 3.323,9.368 3.376,9.208 3.46,9.052 3.542,8.938 3.624,8.825 3.703,8.753 3.806,8.694 3.911,8.633 4.038,8.581 4.157,8.554 4.276,8.526 4.384,8.522 4.473,8.532 4.561,8.539 4.629,8.559 4.689,8.581 4.749,8.603 4.802,8.628 4.845,8.633 4.89,8.641 4.925,8.629 4.95,8.657 4.975,8.687 4.988,8.753 5.01,8.769 5.033,8.781 5.065,8.737 5.093,8.687 5.156,8.583 5.163,8.467 5.124,8.357 5.108,8.3 5.09,8.242 5.081,8.192 5.074,8.141 5.075,8.1 5.109,8.083 5.142,8.066 5.208,8.075 5.26,8.093 5.354,8.134 5.429,8.182 5.515,8.271 5.554,8.316 5.587,8.378 5.615,8.387 5.645,8.397 5.667,8.353 5.686,8.318 5.705,8.281 5.719,8.253 5.727,8.202 5.734,8.151 5.734,8.079 5.713,7.97 5.692,7.86 5.651,7.715 5.654,7.616 5.657,7.519 5.704,7.469 5.769,7.393 5.832,7.315 5.914,7.21 5.976,7.11 6.036,7.01 6.076,6.916 6.112,6.818 6.196,6.618 6.23,6.392 6.236,6.162 6.242,6.042 6.247,5.926 6.23,5.817 6.213,5.71 6.178,5.592 6.133,5.497 6.067,5.356 6.039,5.281 5.96,5.167 5.879,5.054 5.788,4.946 5.672,4.837 5.548,4.722 5.42,4.649 5.277,4.556 5.134,4.464 4.967,4.375 4.721,4.328 4.474,4.282 4.15,4.281 3.892,4.333 3.632,4.387 3.438,4.494 3.287,4.599 3.138,4.703 3.032,4.805 2.931,4.899 2.833,4.993 2.739,5.081 2.7,5.098 2.66,5.111 2.674,5.054 2.685,4.977 2.695,4.902 2.703,4.806 2.718,4.66 2.734,4.51 2.759,4.309 2.777,4.167 2.796,4.026 2.806,3.944 2.828,3.895 2.851,3.847 2.885,3.831 2.917,3.813 2.983,3.776 3.051,3.716 3.128,3.695 3.168,3.684 3.207,3.689 3.279,3.689 3.35,3.687 3.454,3.682 3.519,3.683 3.584,3.684 3.61,3.692 3.63,3.666 3.648,3.64 3.662,3.58 3.667,3.289 3.674,2.998 3.673,2.475 3.669,2.177 3.665,1.879 3.66,1.807 3.644,1.764 3.631,1.721 3.605,1.708 3.54,1.708 3.473,1.709 3.364,1.722 3.283,1.732 3.201,1.742 3.147,1.747 3.136,1.728 3.123,1.712 3.154,1.673 3.184,1.636 3.213,1.597 3.243,1.564 3.288,1.506 3.333,1.446 3.395,1.364 3.441,1.264 3.488,1.162 3.519,1.043 3.528,0.969 3.54,0.895 3.53,0.866 3.521,0.838 3.512,0.808 3.505,0.779 3.475,0.771 3.446,0.764 3.394,0.781 3.346,0.792 3.298,0.804 3.252,0.811 3.144,0.824 3.035,0.84 2.861,0.858 2.732,0.864 2.601,0.87 2.512,0.861 2.465,0.822 2.416,0.784 2.411,0.716 2.442,0.65 2.472,0.584 2.541,0.52 2.61,0.458 2.68,0.399 2.752,0.343 2.822,0.258 2.892,0.173 2.964,0.061 3,-0.019 3.08,-0.196 2.976,-0.214 2.869,-0.307 2.808,-0.356 2.737,-0.42 2.714,-0.414 c -0.023,0.005 0.002,0.08 0.032,0.15 0.03,0.067 0.064,0.131 0.033,0.139 C 2.749,-0.117 2.653,-0.166 2.584,-0.209 2.514,-0.252 2.472,-0.289 2.423,-0.333 2.373,-0.377 2.315,-0.426 2.259,-0.479 2.206,-0.192 2.154,0.098 2.123,0.289 2.091,0.482 2.08,0.577 2.057,0.63 2.034,0.682 1.998,0.692 1.959,0.686 1.92,0.679 1.879,0.658 1.815,0.602 1.751,0.543 1.663,0.45 1.563,0.306 1.463,0.167 1.351,-0.022 1.282,-0.163 1.215,-0.304 1.189,-0.396 1.167,-0.467 1.143,-0.538 1.124,-0.586 1.085,-0.584 1.046,-0.583 0.989,-0.532 0.933,-0.491 0.878,-0.451 0.824,-0.424 0.8,-0.426 0.75,-0.433 0.814,-0.562 0.829,-0.647 0.838,-0.693 0.836,-0.732 0.811,-0.739 0.785,-0.746 0.738,-0.723 0.691,-0.685 0.644,-0.65 0.598,-0.603 0.54,-0.544 c -0.055,0.058 -0.12,0.129 -0.128,0.177 -0.007,0.046 0.044,0.071 0.134,0.149 0.089,0.075 0.216,0.203 0.324,0.296 0.107,0.094 0.194,0.149 0.255,0.2 C 1.186,0.326 1.221,0.369 1.219,0.392 1.217,0.415 1.177,0.419 1.145,0.413 1.113,0.407 1.089,0.388 1.028,0.346 0.967,0.302 0.869,0.232 0.761,0.169 0.652,0.104 0.532,0.044 0.44,0.018 0.349,-0.01 0.287,-0.001 0.267,0.024 0.247,0.05 0.268,0.095 0.284,0.132 c 0.015,0.04 0.025,0.069 0,0.093 C 0.259,0.249 0.198,0.265 0.138,0.226 0.079,0.186 0.021,0.093 0,0"
                 style="fill:#fceb66;fill-opacity:1;fill-rule:nonzero;stroke:#000000;stroke-width:0.11345271;stroke-miterlimit:4;stroke-dasharray:none;stroke-opacity:1"
                 id="path234"
                 inkscape:connector-curvature="0"
                 sodipodi:nodetypes="ccccscccccccccccscccccccccccccccccccccccccccccccccccccccccccscccccccccccccccccccccccccccccccccccsccsccccssccccccccccccccccsccccccccsccccccccccscscccccccccccccccccscccccscccccccccccccscccccscccccccccccccscscccccsccscsccccccccccccccccccccccccsccccscccccccccccccscccccccccccccccccccccccccccccccccccsccsccccccccccccccccsccccccccccccccccccccccccccsscccccscc" /><path
                 style="fill:none;stroke:#000000;stroke-width:0.11345271;stroke-linecap:butt;stroke-linejoin:miter;stroke-miterlimit:4;stroke-dasharray:none;stroke-opacity:1"
                 d="m -2.9079205,9.9487366 c 0,0 0.5452316,-0.253143 0.5517228,-0.1752526 0.00649,0.07789 -0.058418,0.1882344 -0.012982,0.2206887 0.045436,0.032454 1.0190645,-0.1752532 1.3565891,-0.4543599"
                 id="path995"
                 inkscape:connector-curvature="0"
                 sodipodi:nodetypes="cccc" /></g><path
               style="fill:none;stroke:#000000;stroke-width:0.11345271;stroke-linecap:butt;stroke-linejoin:miter;stroke-miterlimit:4;stroke-dasharray:none;stroke-opacity:1"
               d="m 418.4336,347.1463 c 0,0 0.36638,0.75077 0.48321,0.90655 0.11684,0.15578 0.31805,0.71399 -0.0779,0.75294"
               id="path993"
               inkscape:connector-curvature="0"
               sodipodi:nodetypes="ccc" /><g
               style="fill:#fceb66;fill-opacity:1;stroke:#000000;stroke-width:0.11345271;stroke-miterlimit:4;stroke-dasharray:none;stroke-opacity:1"
               id="g228"
               transform="translate(415.6972,354.3507)"><path
                 d="M 0.368,0.161 C 0.569,0.216 0.899,0.263 1.097,0.289 1.294,0.315 1.361,0.312 1.383,0.335 1.407,0.355 1.386,0.401 1.368,0.443 1.353,0.482 1.34,0.516 1.393,0.514 1.445,0.514 1.563,0.477 1.671,0.443 1.778,0.41 1.876,0.38 2.002,0.369 2.128,0.36 2.284,0.37 2.406,0.403 2.529,0.436 2.616,0.488 2.68,0.525 2.742,0.564 2.781,0.583 2.812,0.614 2.843,0.643 2.899,0.66 2.938,0.676 3.003,0.703 3.085,0.746 3.15,0.78 l 0.033,0.031 c 0.172,0.118 0.209,0.55 0.228,0.642 0.018,0.093 0.024,0.544 0.031,0.65 0.006,0.104 0.045,0.213 0.045,0.213 0.066,0.11 0.155,0.193 0.244,0.256 l 0.021,0.013 c 0.105,0.077 0.156,0.119 0.21,0.154 0,0 0.097,0.065 0.13,0.114 C 4.114,2.886 4.168,2.946 4.12,2.973 4.065,3.006 3.86,3.002 3.86,3.002 L 3.037,2.972 C 2.981,2.983 2.988,2.996 3.014,3.024 3.033,3.045 3.067,3.079 3.164,3.13 3.26,3.179 3.298,3.194 3.425,3.262 3.553,3.33 3.668,3.39 3.752,3.4 3.834,3.41 3.882,3.368 4.043,3.313 4.204,3.259 4.477,3.192 4.655,3.152 4.835,3.112 4.921,3.101 4.978,3.098 5.037,3.095 5.067,3.101 5.109,3.112 5.152,3.123 5.205,3.136 5.22,3.108 5.236,3.077 5.213,3.006 5.179,2.954 5.145,2.904 5.098,2.875 5.105,2.848 5.11,2.82 5.166,2.794 5.23,2.803 5.292,2.811 5.362,2.853 5.414,2.879 5.466,2.904 5.497,2.915 5.543,2.912 5.588,2.908 5.646,2.892 5.685,2.811 5.723,2.731 5.743,2.588 5.717,2.507 5.69,2.423 5.617,2.402 5.545,2.399 5.473,2.395 5.402,2.409 5.349,2.418 5.295,2.428 5.258,2.432 5.25,2.412 5.239,2.393 5.257,2.351 5.28,2.313 5.302,2.275 5.331,2.243 5.372,2.229 5.41,2.213 5.459,2.215 5.491,2.161 5.522,2.108 5.538,2 5.552,1.885 5.567,1.769 5.582,1.646 5.597,1.549 5.613,1.45 5.628,1.378 5.635,1.293 5.642,1.208 5.64,1.111 5.641,1.036 5.644,0.961 5.65,0.908 5.632,0.891 5.614,0.875 5.573,0.898 5.538,0.929 5.503,0.961 5.474,1.002 5.447,1.003 5.419,1.003 5.391,0.964 5.4,0.921 5.408,0.878 5.451,0.829 5.491,0.782 5.532,0.734 5.57,0.685 5.567,0.57 5.564,0.455 5.52,0.273 5.503,0.128 5.483,-0.019 5.491,-0.13 5.481,-0.256 5.472,-0.384 5.447,-0.528 5.444,-0.661 5.44,-0.794 5.458,-0.916 5.445,-0.972 5.432,-1.026 5.388,-1.013 5.335,-0.992 5.281,-0.972 5.219,-0.944 5.173,-0.929 5.127,-0.913 5.098,-0.911 5.089,-0.933 5.081,-0.954 5.093,-1.003 5.098,-1.057 5.102,-1.111 5.098,-1.173 5.09,-1.239 5.086,-1.305 5.079,-1.374 5.046,-1.436 5.014,-1.495 4.955,-1.549 4.869,-1.653 4.782,-1.757 4.665,-1.914 4.559,-2.057 4.453,-2.199 4.356,-2.327 4.287,-2.422 4.217,-2.518 4.174,-2.579 4.139,-2.6 4.104,-2.619 4.077,-2.594 4.055,-2.534 4.033,-2.472 4.018,-2.375 3.993,-2.329 3.968,-2.283 3.932,-2.287 3.909,-2.315 3.884,-2.341 3.872,-2.389 3.859,-2.463 3.845,-2.536 3.831,-2.637 3.801,-2.705 3.77,-2.774 3.722,-2.812 3.678,-2.812 3.633,-2.812 3.592,-2.774 3.533,-2.736 3.473,-2.7 3.398,-2.645 3.341,-2.598 3.257,-2.529 3.253,-2.51 3.205,-2.475 3.157,-2.442 3.113,-2.413 3.082,-2.43 3.05,-2.448 3.015,-2.512 2.996,-2.571 2.977,-2.631 2.972,-2.672 2.928,-2.664 2.884,-2.656 2.821,-2.603 2.77,-2.497 c -0.05,0.105 -0.083,0.245 -0.095,0.394 -0.012,0.149 -0.005,0.306 0.001,0.467 0.006,0.16 0.027,0.318 0.022,0.398 -0.011,0.166 -0.14,0.204 -0.187,0.177 C 2.464,-1.09 2.431,-1.142 2.394,-1.154 2.343,-1.172 2.356,-1.105 2.328,-0.993 2.312,-0.932 2.302,-0.801 2.297,-0.776 l -0.012,0.043 c -0.059,0.371 -0.641,0.394 -0.639,0.392 l -0.414,0.019 c -0.238,0.002 -0.636,0 -0.888,-0.001 -0.251,-0.002 -0.42490857,-0.24067084 -0.49690857,-0.23767084 0,0 -0.077,-0.015 -0.088,0.023 C -0.26619143,-0.31820717 -0.1893083,-0.09273374 0.368,0.161 Z"
                 style="fill:#fceb66;fill-opacity:1;fill-rule:nonzero;stroke:#000000;stroke-width:0.11345271;stroke-miterlimit:4;stroke-dasharray:none;stroke-opacity:1"
                 id="path230"
                 inkscape:connector-curvature="0"
                 sodipodi:nodetypes="cccccccccccccccccccccccccccccccccccccccccccccccsccccccscccccccccccccccscccscccccscsccccccccccccc" /></g></g></g><g
           style="fill:#fceb66;fill-opacity:1;stroke:#000000;stroke-width:0.11345271;stroke-miterlimit:4;stroke-dasharray:none;stroke-opacity:1"
           id="g148"><g
             style="fill:#fceb66;fill-opacity:1;stroke:#000000;stroke-width:0.11345271;stroke-miterlimit:4;stroke-dasharray:none;stroke-opacity:1"
             id="g150"
             clip-path="url(#clipPath154)"><g
               style="fill:#fceb66;fill-opacity:1;stroke:#000000;stroke-width:0.11345271;stroke-miterlimit:4;stroke-dasharray:none;stroke-opacity:1"
               id="g156"
               transform="translate(415.2733,355.9832)"><path
                 d="M 0,0 C 0.037,-1.399 -0.002,-2.804 -0.082,-3.726 -0.16,-4.648 -0.279,-5.088 -0.497,-5.6 -0.714,-6.112 -1.03,-6.697 -1.357,-7.168 -1.684,-7.639 -2.022,-7.996 -2.406,-8.3 c -0.455,0.277 -0.855,0.641 -1.2,1.118 -0.347,0.475 -0.639,1.065 -0.825,1.595 -0.185,0.531 -0.32,1.035 -0.39,1.926 -0.073,0.92 -0.155,2.296 -0.094,3.664 z"
                 style="fill:#fceb66;fill-opacity:1;fill-rule:nonzero;stroke:#000000;stroke-width:0.11345271;stroke-miterlimit:4;stroke-dasharray:none;stroke-opacity:1"
                 id="path158"
                 inkscape:connector-curvature="0" /></g></g></g></g></g></g></svg>